<mxfile host="Electron" modified="2023-09-24T05:14:34.146Z" agent="Mozilla/5.0 (Windows NT 10.0; Win64; x64) AppleWebKit/537.36 (KHTML, like Gecko) draw.io/21.7.5 Chrome/114.0.5735.289 Electron/25.8.1 Safari/537.36" etag="t0BCNCdWmH-k2LOepxfO" version="21.7.5" type="device">
  <diagram name="‫עמוד-1‬" id="PIUXfP5wfecW3DTeMQHT">
    <mxGraphModel dx="1050" dy="621" grid="1" gridSize="10" guides="1" tooltips="1" connect="1" arrows="1" fold="1" page="1" pageScale="1" pageWidth="1169" pageHeight="827" math="0" shadow="0">
      <root>
        <mxCell id="0" />
        <mxCell id="1" parent="0" />
        <mxCell id="ul5spbDsc-mCCxbf8Q7h-1" value="&lt;font size=&quot;1&quot; face=&quot;Garamond&quot;&gt;&lt;b style=&quot;font-size: 26px;&quot;&gt;Max Registers&lt;/b&gt;&lt;/font&gt;" style="rounded=0;whiteSpace=wrap;html=1;fillColor=#fff2cc;strokeColor=#d6b656;" parent="1" vertex="1">
          <mxGeometry x="320" y="320" width="400" height="120" as="geometry" />
        </mxCell>
        <mxCell id="ul5spbDsc-mCCxbf8Q7h-2" value="&lt;font size=&quot;1&quot; face=&quot;Garamond&quot;&gt;&lt;b style=&quot;font-size: 26px;&quot;&gt;Matrix Calculation&lt;/b&gt;&lt;/font&gt;" style="rounded=0;whiteSpace=wrap;html=1;fillColor=#dae8fc;strokeColor=#6c8ebf;" parent="1" vertex="1">
          <mxGeometry x="50" y="320" width="170" height="120" as="geometry" />
        </mxCell>
        <mxCell id="ul5spbDsc-mCCxbf8Q7h-3" value="&lt;font size=&quot;1&quot; face=&quot;Garamond&quot;&gt;&lt;b style=&quot;font-size: 26px;&quot;&gt;Traceback&lt;/b&gt;&lt;/font&gt;" style="rounded=0;whiteSpace=wrap;html=1;fillColor=#ffe6cc;strokeColor=#d79b00;" parent="1" vertex="1">
          <mxGeometry x="435" y="500" width="170" height="120" as="geometry" />
        </mxCell>
        <mxCell id="ul5spbDsc-mCCxbf8Q7h-4" value="&lt;font size=&quot;1&quot; face=&quot;Garamond&quot;&gt;&lt;b style=&quot;font-size: 26px;&quot;&gt;Controller&lt;/b&gt;&lt;/font&gt;" style="rounded=0;whiteSpace=wrap;html=1;fillColor=#d5e8d4;strokeColor=#82b366;" parent="1" vertex="1">
          <mxGeometry x="320" y="140" width="400" height="120" as="geometry" />
        </mxCell>
        <mxCell id="ul5spbDsc-mCCxbf8Q7h-7" value="" style="endArrow=classic;html=1;rounded=0;strokeWidth=3;entryX=0.5;entryY=0;entryDx=0;entryDy=0;exitX=0.5;exitY=1;exitDx=0;exitDy=0;" parent="1" edge="1" target="ul5spbDsc-mCCxbf8Q7h-1" source="ul5spbDsc-mCCxbf8Q7h-4">
          <mxGeometry width="50" height="50" relative="1" as="geometry">
            <mxPoint x="560" y="240" as="sourcePoint" />
            <mxPoint x="560" y="320" as="targetPoint" />
          </mxGeometry>
        </mxCell>
        <mxCell id="ul5spbDsc-mCCxbf8Q7h-11" value="wr_en_max" style="edgeLabel;html=1;align=center;verticalAlign=middle;resizable=0;points=[];fontSize=14;fontFamily=Garamond;" parent="ul5spbDsc-mCCxbf8Q7h-7" vertex="1" connectable="0">
          <mxGeometry x="-0.1424" relative="1" as="geometry">
            <mxPoint y="-3" as="offset" />
          </mxGeometry>
        </mxCell>
        <mxCell id="ul5spbDsc-mCCxbf8Q7h-13" value="" style="endArrow=classic;html=1;rounded=0;exitX=1;exitY=0.5;exitDx=0;exitDy=0;entryX=0;entryY=0.5;entryDx=0;entryDy=0;strokeWidth=3;" parent="1" source="ul5spbDsc-mCCxbf8Q7h-2" target="ul5spbDsc-mCCxbf8Q7h-1" edge="1">
          <mxGeometry width="50" height="50" relative="1" as="geometry">
            <mxPoint x="440" y="360" as="sourcePoint" />
            <mxPoint x="490" y="310" as="targetPoint" />
          </mxGeometry>
        </mxCell>
        <mxCell id="ul5spbDsc-mCCxbf8Q7h-15" value="&lt;font face=&quot;Garamond&quot; style=&quot;font-size: 14px;&quot;&gt;row_in&lt;/font&gt;" style="edgeLabel;html=1;align=center;verticalAlign=middle;resizable=0;points=[];labelBackgroundColor=none;" parent="ul5spbDsc-mCCxbf8Q7h-13" vertex="1" connectable="0">
          <mxGeometry x="-0.0467" y="-2" relative="1" as="geometry">
            <mxPoint x="-1" y="-14" as="offset" />
          </mxGeometry>
        </mxCell>
        <mxCell id="ul5spbDsc-mCCxbf8Q7h-14" value="" style="endArrow=classic;html=1;rounded=0;exitX=0.394;exitY=0.998;exitDx=0;exitDy=0;entryX=0.25;entryY=0;entryDx=0;entryDy=0;strokeWidth=3;exitPerimeter=0;" parent="1" source="ul5spbDsc-mCCxbf8Q7h-1" target="ul5spbDsc-mCCxbf8Q7h-3" edge="1">
          <mxGeometry width="50" height="50" relative="1" as="geometry">
            <mxPoint x="440" y="360" as="sourcePoint" />
            <mxPoint x="490" y="310" as="targetPoint" />
          </mxGeometry>
        </mxCell>
        <mxCell id="ul5spbDsc-mCCxbf8Q7h-16" value="&lt;font face=&quot;Garamond&quot; style=&quot;font-size: 14px;&quot;&gt;max_row&lt;/font&gt;" style="edgeLabel;html=1;align=center;verticalAlign=middle;resizable=0;points=[];labelBackgroundColor=default;" parent="ul5spbDsc-mCCxbf8Q7h-14" vertex="1" connectable="0">
          <mxGeometry x="-0.0983" relative="1" as="geometry">
            <mxPoint y="-4" as="offset" />
          </mxGeometry>
        </mxCell>
        <mxCell id="bSMT40vLKzyHL3Qfwybs-1" value="" style="endArrow=classic;html=1;rounded=0;exitX=1;exitY=0.25;exitDx=0;exitDy=0;entryX=0;entryY=0.25;entryDx=0;entryDy=0;strokeWidth=3;" edge="1" parent="1" source="ul5spbDsc-mCCxbf8Q7h-2" target="ul5spbDsc-mCCxbf8Q7h-1">
          <mxGeometry width="50" height="50" relative="1" as="geometry">
            <mxPoint x="510" y="350" as="sourcePoint" />
            <mxPoint x="560" y="300" as="targetPoint" />
          </mxGeometry>
        </mxCell>
        <mxCell id="bSMT40vLKzyHL3Qfwybs-4" value="&lt;font face=&quot;Garamond&quot; style=&quot;font-size: 14px;&quot;&gt;score_in&lt;/font&gt;" style="edgeLabel;html=1;align=center;verticalAlign=middle;resizable=0;points=[];labelBackgroundColor=none;" vertex="1" connectable="0" parent="bSMT40vLKzyHL3Qfwybs-1">
          <mxGeometry x="-0.16" y="2" relative="1" as="geometry">
            <mxPoint x="5" y="-9" as="offset" />
          </mxGeometry>
        </mxCell>
        <mxCell id="bSMT40vLKzyHL3Qfwybs-2" value="" style="endArrow=classic;html=1;rounded=0;exitX=1;exitY=0.75;exitDx=0;exitDy=0;entryX=0;entryY=0.75;entryDx=0;entryDy=0;strokeWidth=3;" edge="1" parent="1" source="ul5spbDsc-mCCxbf8Q7h-2" target="ul5spbDsc-mCCxbf8Q7h-1">
          <mxGeometry width="50" height="50" relative="1" as="geometry">
            <mxPoint x="510" y="350" as="sourcePoint" />
            <mxPoint x="560" y="300" as="targetPoint" />
          </mxGeometry>
        </mxCell>
        <mxCell id="bSMT40vLKzyHL3Qfwybs-5" value="&lt;font face=&quot;Garamond&quot; style=&quot;font-size: 14px;&quot;&gt;col_in&lt;/font&gt;" style="edgeLabel;html=1;align=center;verticalAlign=middle;resizable=0;points=[];labelBackgroundColor=none;" vertex="1" connectable="0" parent="bSMT40vLKzyHL3Qfwybs-2">
          <mxGeometry x="-0.32" y="-1" relative="1" as="geometry">
            <mxPoint x="13" y="-12" as="offset" />
          </mxGeometry>
        </mxCell>
        <mxCell id="bSMT40vLKzyHL3Qfwybs-3" value="" style="endArrow=classic;html=1;rounded=0;exitX=1;exitY=0.5;exitDx=0;exitDy=0;strokeWidth=3;" edge="1" parent="1" source="ul5spbDsc-mCCxbf8Q7h-1">
          <mxGeometry width="50" height="50" relative="1" as="geometry">
            <mxPoint x="510" y="350" as="sourcePoint" />
            <mxPoint x="840" y="380" as="targetPoint" />
          </mxGeometry>
        </mxCell>
        <mxCell id="bSMT40vLKzyHL3Qfwybs-8" value="&lt;font style=&quot;font-size: 14px;&quot; face=&quot;Garamond&quot;&gt;max_score&lt;/font&gt;" style="edgeLabel;html=1;align=center;verticalAlign=middle;resizable=0;points=[];labelBackgroundColor=none;" vertex="1" connectable="0" parent="bSMT40vLKzyHL3Qfwybs-3">
          <mxGeometry x="-0.0222" y="1" relative="1" as="geometry">
            <mxPoint x="-5" y="-8" as="offset" />
          </mxGeometry>
        </mxCell>
        <mxCell id="bSMT40vLKzyHL3Qfwybs-6" value="" style="endArrow=classic;html=1;rounded=0;exitX=0.606;exitY=0.998;exitDx=0;exitDy=0;entryX=0.75;entryY=0;entryDx=0;entryDy=0;strokeWidth=3;exitPerimeter=0;" edge="1" parent="1" source="ul5spbDsc-mCCxbf8Q7h-1" target="ul5spbDsc-mCCxbf8Q7h-3">
          <mxGeometry width="50" height="50" relative="1" as="geometry">
            <mxPoint x="560" y="440" as="sourcePoint" />
            <mxPoint x="560" y="520" as="targetPoint" />
          </mxGeometry>
        </mxCell>
        <mxCell id="bSMT40vLKzyHL3Qfwybs-7" value="&lt;font face=&quot;Garamond&quot; style=&quot;font-size: 14px;&quot;&gt;max_col&lt;/font&gt;" style="edgeLabel;html=1;align=center;verticalAlign=middle;resizable=0;points=[];labelBackgroundColor=default;" vertex="1" connectable="0" parent="bSMT40vLKzyHL3Qfwybs-6">
          <mxGeometry x="-0.0983" relative="1" as="geometry">
            <mxPoint y="-4" as="offset" />
          </mxGeometry>
        </mxCell>
      </root>
    </mxGraphModel>
  </diagram>
</mxfile>
